<svg width="100" height="100" viewBox="0 0 24 24" fill="none" xmlns="http://www.w3.org/2000/svg">
    <path fill="#e57373" d="M12 2C10.9 2 10 2.9 10 4V7.1C7.7 6.7 5.8 5.1 5.2 3C5 2.2 4.1 1.7 3.3 1.9C2.5 2 2 2.9 2.2 3.7C3 7 6.2 9.5 10 9.9V12H7.1C6.7 10.7 5.1 8.8 3 8.2C2.2 8 1.7 7.1 1.9 6.3C2 5.5 2.9 5 3.7 5.2C7 6 9.5 9.2 9.9 13H12V15.9C9.2 16.3 6 18.8 5.2 22C5 22.8 5.5 23.7 6.3 23.9C7.1 24 8 23.5 8.2 22.7C8.8 20.6 10.7 18.7 13 18.1V22C13 23.1 13.9 24 15 24C16.1 24 17 23.1 17 22V18.1C19.3 18.7 21.2 20.6 21.8 22.7C22 23.5 22.9 24 23.7 23.8C24.5 23.7 25 22.8 24.8 22C24 18.8 21.3 16.3 18.1 15.9V13H22C23.1 13 24 12.1 24 11C24 9.9 23.1 9 22 9H18.1C18.7 6.7 20.6 4.8 22.7 4.2C23.5 4 24 3.1 23.8 2.3C23.7 1.5 22.8 1 22 1.2C18.8 2 16.3 5.2 15.9 9H13V4C13 2.9 12.1 2 12 2Z"/>
</svg>
